<?xml version="1.0" encoding="UTF-8"?>
<!--
Font Awesome Pro 5.15.1 by @fontawesome - https://fontawesome.com
License - https://fontawesome.com/license (Commercial License)
-->
<svg xmlns="http://www.w3.org/2000/svg" style="display: none;">
    <symbol id="umbrella-beach" viewBox="0 0 640 512">
    <path d="M443.48 18.08C409.77 5.81 375.31 0 341.41 0c-90.47 0-176.84 41.45-233.44 112.33-6.7 8.39-2.67 21.04 7.42 24.71l236.15 85.95L257.99 480H8c-4.42 0-8 3.58-8 8v16c0 4.42 3.58 8 8 8h560c4.42 0 8-3.58 8-8v-16c0-4.42-3.58-8-8-8H292.03l89.56-246.07 236.75 86.17c1.83.67 3.7.98 5.53.98 8.27 0 15.82-6.35 16.04-15.14 3.03-124.66-72.77-242.85-196.43-287.86zm-295.31 96.84C198.11 62.64 268.77 32 341.42 32c7.81 0 15.6.35 23.36 1.04-36.87 23.16-73.76 66.62-103.06 123.21l-113.55-41.33zm315.21 114.73l-171.12-62.28C332.69 90.93 384.89 46.1 420.4 46.09c4.35 0 8.32.68 12.13 2.06 19.56 7.12 33.97 35.16 38.56 75 3.66 31.83.53 68.45-7.71 106.5zm30.8 11.21c13.83-61.57 13.67-118.28.7-159.64 65.33 46.08 107.58 119.45 112.61 200.89l-113.31-41.25z"></path>
  </symbol>
  <symbol id="chart-bar" viewBox="0 0 512 512">
    <path d="M424 352h16c4.4 0 8-3.6 8-8V104c0-4.4-3.6-8-8-8h-16c-4.4 0-8 3.6-8 8v240c0 4.4 3.6 8 8 8zm-96 0h16c4.4 0 8-3.6 8-8V200c0-4.4-3.6-8-8-8h-16c-4.4 0-8 3.6-8 8v144c0 4.4 3.6 8 8 8zm-192 0h16c4.4 0 8-3.6 8-8v-80c0-4.4-3.6-8-8-8h-16c-4.4 0-8 3.6-8 8v80c0 4.4 3.6 8 8 8zm96 0h16c4.4 0 8-3.6 8-8V136c0-4.4-3.6-8-8-8h-16c-4.4 0-8 3.6-8 8v208c0 4.4 3.6 8 8 8zm272 64H32V72c0-4.42-3.58-8-8-8H8c-4.42 0-8 3.58-8 8v360c0 8.84 7.16 16 16 16h488c4.42 0 8-3.58 8-8v-16c0-4.42-3.58-8-8-8z"></path>
  </symbol>
  <symbol id="money-bill-wave" viewBox="0 0 640 512">
    <path d="M320 144c-53.02 0-96 50.14-96 112 0 61.85 42.98 112 96 112 53 0 96-50.13 96-112 0-61.86-42.98-112-96-112zm0 192c-35.29 0-64-35.89-64-80s28.71-80 64-80 64 35.89 64 80-28.71 80-64 80zM621.16 54.46C582.37 38.19 543.55 32 504.75 32c-123.17-.01-246.33 62.34-369.5 62.34C70.34 94.34 46.9 79 32.25 79 15.04 79 0 92.32 0 110.81v317.26c0 12.63 7.23 24.6 18.84 29.46C57.63 473.81 96.45 480 135.25 480c123.17 0 246.33-62.35 369.5-62.35 64.91 0 88.34 15.35 103 15.35 17.21 0 32.25-13.32 32.25-31.81V83.93c0-12.64-7.23-24.6-18.84-29.47zm-588.21 56.8c20.22 6.42 41.03 10.53 62.67 12.89-1.97 33.41-29.23 60.04-62.89 60.43l.22-73.32zM32 428.07l.13-42.54c33.58.07 60.88 26.31 63.38 59.43-22.45-3.04-43.63-8.45-63.51-16.89zm575.05-27.33c-20.16-6.4-40.9-10.51-62.47-12.87 2.89-32.5 29.69-58.14 62.69-58.52l-.22 71.39zm.31-103.54c-50 .34-90.59 39.32-94.58 88.6-70.73-1.43-137.18 15.82-200.6 31.87-75.07 19-126.54 31.21-184.41 29.87-1.23-52.02-43.48-94.01-95.55-94.13l.41-136.67c50.65-.34 91.72-40.32 94.78-90.52 70.53 1.41 137.02-15.83 200.4-31.87C402.6 75.41 454.3 63.13 512.03 64.46c.18 52.93 43.01 95.94 95.74 96.07l-.41 136.67zm.51-168.8c-34.24-.07-62.04-27.34-63.58-61.38 22.53 3.03 43.78 8.45 63.71 16.91l-.13 44.47z"></path>
  </symbol>
  <symbol id="handshake" viewBox="0 0 640 512">
    <path d="M16 319.8c8.8 0 16-7.2 16-16s-7.2-16-16-16-16 7.2-16 16c0 8.9 7.2 16 16 16zM632 128l-113.5.2-51.2-49.9c-9.1-9.1-21.1-14.1-33.9-14.1h-101c-10.4 0-20.1 3.9-28.3 10-8.4-6.5-18.7-10.3-29.3-10.3h-69.5c-12.7 0-24.9 5.1-33.9 14.1l-50 50H8c-4.4 0-8 3.6-8 8v16c0 4.4 3.6 8 8 8h56v191.9H8c-4.4 0-8 3.6-8 8v16c0 4.4 3.6 8 8 8h56c17.6 0 31.8-14.2 31.9-31.7h33.2l81.5 78c29.8 24.1 71.8 23.4 101-.2l7.2 6.2c9.6 7.8 21.3 11.9 33.5 11.9 16 0 31.1-7 41.4-19.6l21.9-26.9c16.4 8.9 42.9 9 60-12l9.5-11.7c6.2-7.6 9.6-16.6 10.5-25.7h48.6c.1 17.5 14.4 31.7 31.9 31.7h56c4.4 0 8-3.6 8-8v-16c0-4.4-3.6-8-8-8h-56V160.2l56-.2c4.4 0 8-3.6 8-8v-16c-.1-4.5-3.7-8-8.1-8zM460.2 357.6l-9.5 11.7c-5.4 6.6-15.4 8.1-22.5 2.3l-17.8-14.4-41.5 51c-7.5 9.3-21 10.2-29.4 3.4l-30.6-26.1-10.4 12.8c-16.7 20.5-47 23.7-66.6 7.9L142 320.1H96V159.9h38.6l59.3-59.3c3-3 7.1-4.7 11.3-4.7h69.5c.9 2.2.3.7 1.1 2.9l-59 54.2c-28.2 25.9-29.6 69.2-4.2 96.9 14.3 15.6 58.6 39.3 96.9 4.2l22.8-20.9 125.6 101.9c6.8 5.6 7.8 15.7 2.3 22.5zm83.8-37.5h-57.2c-2.5-3.5-5.3-6.9-8.8-9.8l-121.9-99 28.4-26.1c6.5-6 7-16.1 1-22.6s-16.1-6.9-22.6-1l-75.1 68.8c-14.4 13.1-38.6 12-51.7-2.2-13.6-14.8-12.7-38 2.2-51.7l83.1-76.2c3-2.7 6.8-4.2 10.8-4.2h101c4.3 0 8.3 1.7 11.4 4.8l60.7 59.1H544v160.1zm80-32.2c-8.8 0-16 7.2-16 16s7.2 16 16 16 16-7.2 16-16c0-8.9-7.2-16-16-16z"></path>
  </symbol>
  <symbol id="university" viewBox="0 0 512 512">
    <path d="M496 448h-16v-40c0-13.255-10.745-24-24-24h-40V208h-32v176h-64V208h-32v176h-64V208h-32v176h-64V208H96v176H56c-13.255 0-24 10.745-24 24v40H16c-8.837 0-16 7.163-16 16v8a8 8 0 0 0 8 8h496a8 8 0 0 0 8-8v-8c0-8.837-7.163-16-16-16zM64 416h384v32H64v-32zm440.267-280L271.179 34.463a48.004 48.004 0 0 0-30.358 0L7.733 136A11.999 11.999 0 0 0 0 147.216V156c0 6.627 5.373 12 12 12h20v12c0 6.627 5.373 12 12 12h424c6.627 0 12-5.373 12-12v-12h20c6.627 0 12-5.373 12-12v-8.784c0-4.982-3.077-9.445-7.733-11.216zM448 160H64v-13.606l187.943-81.871a16.004 16.004 0 0 1 8.114 0L448 146.394V160z"></path>
  </symbol>
  <symbol id="balance-scale" viewBox="0 0 640 512">
    <path d="M634.4 279.09L525.35 103.12C522.18 98.38 517.09 96 512 96s-10.18 2.38-13.35 7.12L389.6 279.09c-3.87 5.78-6.09 12.72-5.51 19.64C389.56 364.4 444.74 416 512 416s122.44-51.6 127.91-117.27c.58-6.92-1.64-13.86-5.51-19.64zM512 384c-41.58 0-77.55-27.13-90.78-64h181.2C589 357.23 553.28 384 512 384zm-90.27-96l90.31-145.76L602.98 288H421.73zM536 480H336V125.74c27.56-7.14 48-31.95 48-61.74h152c4.42 0 8-3.58 8-8V40c0-4.42-3.58-8-8-8H374.89c-.15-.26-4.37-11.11-19.11-21.07C345.57 4.03 333.25 0 320 0s-25.57 4.03-35.78 10.93c-14.74 9.96-18.96 20.81-19.11 21.07H104c-4.42 0-8 3.58-8 8v16c0 4.42 3.58 8 8 8h152c0 29.79 20.44 54.6 48 61.74V480H104c-4.42 0-8 3.58-8 8v16c0 4.42 3.58 8 8 8h432c4.42 0 8-3.58 8-8v-16c0-4.42-3.58-8-8-8zM288 64c0-17.67 14.33-32 32-32s32 14.33 32 32-14.33 32-32 32-32-14.33-32-32zm-32.09 234.73c.58-6.92-1.64-13.86-5.51-19.64L141.35 103.12C138.18 98.38 133.09 96 128 96s-10.18 2.38-13.35 7.12L5.6 279.09c-3.87 5.78-6.09 12.72-5.51 19.64C5.56 364.4 60.74 416 128 416s122.44-51.6 127.91-117.27zM128.04 142.24L218.98 288H37.73l90.31-145.76zM37.22 320h181.2C205 357.23 169.28 384 128 384c-41.58 0-77.55-27.13-90.78-64z"></path>
  </symbol>
</svg>
